<svg width="0" height="0" class="hidden">
  <symbol version="1.1" xmlns="http://www.w3.org/2000/svg" viewBox="0 0 1024 1024" id="test">
    <path d="M779.5 1002.7h-535c-64.3 0-116.5-52.3-116.5-116.5V170.7h768v715.5c0 64.2-52.3 116.5-116.5 116.5zM213.3 256v630.1c0 17.2 14 31.2 31.2 31.2h534.9c17.2 0 31.2-14 31.2-31.2V256H213.3z" fill="#3688FF"></path>
    <path d="M917.3 256H106.7C83.1 256 64 236.9 64 213.3s19.1-42.7 42.7-42.7h810.7c23.6 0 42.7 19.1 42.7 42.7S940.9 256 917.3 256zM618.7 128H405.3c-23.6 0-42.7-19.1-42.7-42.7s19.1-42.7 42.7-42.7h213.3c23.6 0 42.7 19.1 42.7 42.7S642.2 128 618.7 128zM405.3 725.3c-23.6 0-42.7-19.1-42.7-42.7v-256c0-23.6 19.1-42.7 42.7-42.7S448 403 448 426.6v256c0 23.6-19.1 42.7-42.7 42.7zM618.7 725.3c-23.6 0-42.7-19.1-42.7-42.7v-256c0-23.6 19.1-42.7 42.7-42.7s42.7 19.1 42.7 42.7v256c-0.1 23.6-19.2 42.7-42.7 42.7z" fill="#5F6379"></path>
  </symbol>
  <symbol version="1.1" xmlns="http://www.w3.org/2000/svg" viewBox="0 -0.5 1025 1025" id="chat">
    <path d="M509.3 606.2c-27.9 0-55.6-9-78.7-26.9L36.4 245.7c-18-15.2-20.2-42.2-5-60.1 15.2-18 42.2-20.2 60.1-5L484.3 513c14.4 11.1 36.5 11.1 52.4-1.2l396.2-331.4c18.1-15.1 45-12.8 60.1 5.4 15.1 18.1 12.7 45-5.4 60.1L590.1 578.3c-24.1 18.7-52.6 27.9-80.8 27.9z" fill="#5F6379"></path>
    <path d="M894.8 938.6H129.4c-71.3 0-129.4-58-129.4-129.4v-552c0-71.3 58-129.4 129.4-129.4h765.4c71.3 0 129.4 58 129.4 129.4v552.1c0 71.3-58.1 129.3-129.4 129.3zM129.4 213.2c-24.3 0-44 19.8-44 44v552.1c0 24.3 19.8 44 44 44h765.4c24.3 0 44-19.8 44-44V257.2c0-24.3-19.8-44-44-44H129.4z" fill="#3688FF"></path>
  </symbol>
  <symbol version="1.1" xmlns="http://www.w3.org/2000/svg" viewBox="0 0 1024 1024" id="develop">
    <path d="M512 1004.5L85.3 758.2V265.5L512 19.1l426.7 246.3v492.7L512 1004.5zM170.7 708.9L512 906l341.3-197.1V314.8L512 117.7 170.7 314.8v394.1z" fill="#3688FF"></path>
    <path d="M511.8 640c-31 0-60.6-11.1-84.1-31.7-25.7-22.5-41.1-53.7-43.4-87.8-4.6-70.4 48.9-131.5 119.3-136.2 33.9-2.2 67 8.9 92.8 31.4 25.7 22.5 41.1 53.7 43.4 87.8 4.6 70.4-48.9 131.5-119.3 136.2-3 0.2-5.8 0.3-8.7 0.3z m0.3-170.7c-1 0-1.9 0-2.9 0.1-23.5 1.6-41.3 21.9-39.8 45.4 0.8 11.4 5.9 21.8 14.4 29.3 8.6 7.5 19.5 11.2 30.9 10.5 23.5-1.6 41.3-21.9 39.8-45.4-0.8-11.4-5.9-21.8-14.5-29.3-7.7-6.9-17.6-10.6-27.9-10.6z" fill="#5F6379"></path>
  </symbol>
  <symbol version="1.1" xmlns="http://www.w3.org/2000/svg" viewBox="0 0 1024 1024" id="main">
    <path d="M388.9 597.4c-135.2 0-245.3-110-245.3-245.3s110-245.3 245.3-245.3 245.3 110 245.3 245.3-110.1 245.3-245.3 245.3z m0-405.3c-88.2 0-160 71.8-160 160s71.8 160 160 160 160-71.8 160-160-71.8-160-160-160z" fill="#3688FF"></path>
    <path d="M591.3 981.3H186.5c-76.6 0-138.8-62.3-138.8-138.8V749c0-130.6 106.2-236.9 236.9-236.9h208.8c130.6 0 236.9 106.3 236.9 236.9v93.5c-0.2 76.5-62.4 138.8-139 138.8zM284.5 597.4c-83.6 0-151.5 68-151.5 151.5v93.5c0 29.5 24 53.5 53.5 53.5h404.8c29.5 0 53.5-24 53.5-53.5v-93.5c0-83.6-68-151.5-151.6-151.5H284.5z" fill="#3688FF"></path>
    <path d="M847.2 938.6c-23.6 0-42.7-19.1-42.7-42.7s19.1-42.7 42.7-42.7c29.5 0 53.5-24 53.5-53.5v-93.5c0-83.6-68-151.5-151.6-151.5h-14.3c-19.8 0-37-13.6-41.5-32.9-4.5-19.3 4.8-39.1 22.5-48 54.8-27.3 88.9-82.1 88.9-143.1 0-88.2-71.8-160-160-160-23.6 0-42.7-19.1-42.7-42.7s19.1-42.7 42.7-42.7c135.2 0 245.3 110 245.3 245.3 0 57.8-19.9 111.9-54.9 154.8 88.3 34.6 151 120.6 151 220.9v93.5c0 76.6-62.3 138.8-138.9 138.8z" fill="#5F6379"></path>
  </symbol>
</svg>